<svg viewBox="0 0 135.5 135.5" xmlns="http://www.w3.org/2000/svg"><path d="M454 4455.3c100-172 202.7-352 316.5-548.1l530.4-3-320.1 551zm2190 0-264.3-458h1.5l-505.4-872.6 266.4-460.5 1033.7 1791zm-2571.6-656 1363.2-2358.2s319.6 552.2 317.6 549c0 0-260.8 459.7-266.4 459l-54.7-84.2c-173 299.9-371 642.9-563.5 976 205.5-1 530-1 760-1l-267.4 460.4c-431.8.3-904.1-.3-1288.9-1zm3483.7 0-636.3-1.4c-81.3-140.6-175.1-301.3-263.8-458 37.5.7 68.1 1.5 105 1.7-170.7-303.2-378-644.2-566.8-982.5-150.2 277.3-335.7 575.6-503.8 874.4l-529.5-3c327.5-567.2 1032-1788.4 1032-1788.4z" fill="#ffffff" transform="matrix(.05849 0 0 -.05849 -126 248.6) translate(2194.3 1259.8) scale(.61719)"/></svg>